<mxfile host="app.diagrams.net" agent="Mozilla/5.0 (Windows NT 10.0; Win64; x64) AppleWebKit/537.36 (KHTML, like Gecko) Chrome/130.0.0.0 Safari/537.36" version="24.8.4">
  <diagram name="Page-1" id="lHtHmn6q9T9jjK3Zp5UJ">
    <mxGraphModel dx="2876" dy="1103" grid="1" gridSize="10" guides="1" tooltips="1" connect="1" arrows="1" fold="1" page="1" pageScale="1" pageWidth="827" pageHeight="1169" math="0" shadow="0">
      <root>
        <mxCell id="0" />
        <mxCell id="1" parent="0" />
        <mxCell id="ltsCt4mNofAr8rePnj9i-86" value="" style="rounded=0;whiteSpace=wrap;html=1;" vertex="1" parent="1">
          <mxGeometry x="840" y="160" width="190" height="250" as="geometry" />
        </mxCell>
        <mxCell id="ltsCt4mNofAr8rePnj9i-77" value="" style="rounded=0;whiteSpace=wrap;html=1;" vertex="1" parent="1">
          <mxGeometry x="1070" y="511.08" width="145" height="240" as="geometry" />
        </mxCell>
        <mxCell id="ltsCt4mNofAr8rePnj9i-84" value="" style="edgeStyle=orthogonalEdgeStyle;rounded=0;orthogonalLoop=1;jettySize=auto;html=1;" edge="1" parent="1" source="ltsCt4mNofAr8rePnj9i-75" target="ltsCt4mNofAr8rePnj9i-77">
          <mxGeometry relative="1" as="geometry" />
        </mxCell>
        <mxCell id="ltsCt4mNofAr8rePnj9i-75" value="" style="rounded=0;whiteSpace=wrap;html=1;" vertex="1" parent="1">
          <mxGeometry x="495" y="510" width="525" height="242.16" as="geometry" />
        </mxCell>
        <mxCell id="ltsCt4mNofAr8rePnj9i-39" value="" style="edgeStyle=orthogonalEdgeStyle;rounded=0;orthogonalLoop=1;jettySize=auto;html=1;" edge="1" parent="1" source="ltsCt4mNofAr8rePnj9i-38" target="ltsCt4mNofAr8rePnj9i-7">
          <mxGeometry relative="1" as="geometry" />
        </mxCell>
        <mxCell id="ltsCt4mNofAr8rePnj9i-38" value="" style="rounded=0;whiteSpace=wrap;html=1;" vertex="1" parent="1">
          <mxGeometry x="-796.16" y="372.5" width="130" height="165" as="geometry" />
        </mxCell>
        <mxCell id="ltsCt4mNofAr8rePnj9i-10" style="vsdxID=24610000;fillColor=none;gradientColor=none;strokeColor=none;spacingTop=-3;spacingBottom=-3;spacingLeft=-3;spacingRight=-3;points=[];labelBackgroundColor=none;rounded=0;html=1;whiteSpace=wrap;" vertex="1" parent="1">
          <mxGeometry x="-280" y="160" width="290" height="590" as="geometry" />
        </mxCell>
        <mxCell id="ltsCt4mNofAr8rePnj9i-11" style="vsdxID=246;fillColor=#ffffff;gradientColor=none;shape=stencil(tZPfDoIgFMafhtuGh63VtdkL9ARMKFkmhljW04eeconTaCuuzp8ffNv5DoTFVcZLSYBW1uijvCphM8I2BEAVmTTKuoiwhLB4r408GF0XAvOSOxJoV5EC70QtDZSbdKfuEmuwWqwHZ4kQvnLSl1a9ed6nFJs3zDHbIpqrIhQ911y0aOSz0TtMG/D78FE3XHVe8yeKLuhsQINUnqOLff8fHgU7NARfMw6aVW/IxLS8x+Y3Y155tBsj7dF2fKU+7ZfnlQv8L+ZK+D1Z8gA=);strokeColor=#000000;spacingTop=-3;spacingBottom=-3;spacingLeft=-3;spacingRight=-3;points=[];labelBackgroundColor=none;rounded=1;html=1;whiteSpace=wrap;" vertex="1" parent="ltsCt4mNofAr8rePnj9i-10">
          <mxGeometry width="290" height="590" as="geometry" />
        </mxCell>
        <mxCell id="ltsCt4mNofAr8rePnj9i-24" value="" style="edgeStyle=orthogonalEdgeStyle;rounded=0;orthogonalLoop=1;jettySize=auto;html=1;" edge="1" parent="ltsCt4mNofAr8rePnj9i-10" source="ltsCt4mNofAr8rePnj9i-12" target="ltsCt4mNofAr8rePnj9i-14">
          <mxGeometry relative="1" as="geometry" />
        </mxCell>
        <mxCell id="ltsCt4mNofAr8rePnj9i-12" style="vsdxID=247;fillColor=#7AA116;gradientColor=none;shape=stencil(nVzbshy3DfwavU7xzuGz4/yHK5YjVRTJJcuJ8vcB6ywJTPcOudbb0QrcHpIg2Ghg9l386Y8Pv/z+/l1wf3z7+uVf7//78ddvH97Fv70L4ePnD++/fvwmf72LP7+LP/325ev7f3798ufnX9/+/fsv3bL/9e8v/+nf8P1t3HkeOfVRwf3v7ZOcjvPtk7+/Dfj08bMd0A5XrwP84Yod8I8/v75B+DeDFo9wPoY8PsrxyOHto+/hYZWOPKzCfJSWH1ZxWrXysHp8lPOR8wb/TICfj/MEfH/kBvh5fjTw7XrFmwW7rnAqR82XBUv+8H71wHbI+MgdrV0fWKzOfH1gsTrhgcWqndcHVqs7/Hq4QPgn4otVIvzmAb+qvyh+i/ce1p8Y1yssHayvBD6vjEm0XhXXS3aC12taxZv9um5wbYcPlwcWJ1mfiD7EXx9Yxvh6feBudX1eMQr1+rzGSF001h06gVc4jlWgAL25w8FxrOkI8Qrfz9F68uFI5YrfAu1WdUcsgB/mOR74BVxbjnpcghd/NHAVCSk4eTnSCVyl5fnU9miBa6vVDX4o8xxPfPPNDzCf6GjL4ud4xbdWr+69HePZqe7xrX8a/Ej4V8+/Hu181OvdEWS/0up5yxHhcWVIgcc1IS5Mo/HRdNWjQOAO4rzLOFgprMiQCOAy4wjg6j3z2jhCIPC8nLkcyUbgFWJwm48zwfOMyvPOVJeL0yis3cQdAdc909TFatziBj6hmzidieLnNb4/UiL80wN+0DA68Mvcjokf5sCJX8b07vAj3YDdFSFMiBXGyG4FjidWCTe/DA+5P6bREz6GKZ9n2DT4DddfJgvwdbjjHXyhEN3HgPOJVUX4Os/rhBcCgMtfj7QkQDIGCVA/vwAvVIzQK06+zeBm0K/0g9DbgZMHrigWDQ/9OXnOwA5u8BbFlii6PPVBuEZEcHK8EHRNFT+B44kVnrtzBME7+IjUoA+BYx8Mn1f0CsRPrNJJ8HUNnwZ3sPhjqb9rjCkY9SQrASLXzwtOv22OvbgG8rIeYgFevBc3X4wg6oRKPLJbnUv4kxyvHQlOXf+oEDzmKdHNJzLwZXndyZhyEn6F6UdPtL9bge+LFd62bYThO/igpEvhB1ub8BFPvTy2A9+LadwvE16s1uhprM5E70PgxhGrSQkUftB/A98ywy+DTiwjMlj8gItfB1+y+OB6kXPUbrS8cGXMeRJ8BN+LTXmMwgPdEKMni5+WF46khIM2GHikxZKIxZPhMYMLGp4UP6/xg7JDxc+YQQZlUoqf4cJLUTmrwV9nsBz4+hi4dpLhz4q/z0qm0R263Eq8+bj4bbqDnTzcOXmOe3nuMqRlnnu+wmevjCjwDsVpVXjy673PQf3Vs1cNfHOdBfZQ1YIi+97a92VMjYwP8FllFHPwwfXFCqnm9uTncpRA8BB3clUOrfABAk9uhL0OerkR27HhNEyrUAjcewRX/3wx5hdHNNdeJiO79EdGsmXupaFEhOmyL994MqYx3aiY3UalsObChbUXq/JXL/ySppsb/AyeX7LGM8NBwPUKZxk7uiNDZvpo2BZ4fmGZ03CygV6nOvEy2SvnzGgMvMPZc9izlHSIC+6vk10ZUyDuWBqtOtiJdM9Q8oE/NfjXub6Mwbhrk4iBH1TkUfyZkAz8qOzp1VSnJlVOFN+B94sV6oABlZ3E4Lscr+ZnGS4evVo4wa/EtcWqIdndZbi16jcrfoRLT6wSOp/Jw+O0qrj5uwy/quJrBIaG829Ki1RgqLD5pyO+uRU4ZExFgcdIJ2FaNcZH5zu9UudXBR4ZgzUhKx0N/PBM4Drh5jkjB5+dwCVjnghcCdZfrFjei5XgkfBt9b3TFNsU3kHoPbPyQtU2K7ifWFGmuxU3s26s5v4J3P8sSg8Un+avHvGysnsakqzSR0P3m5qT0ZUx9HZhHKMPqtpQQo1aw5zkcl3CrLrts4TpDryqIlFkSQZQFxGKDI/ba3triug179B8MXKCMInkoGmF5MAn9Ui1us+OUI2236zZGSrx8pRPskMHPGlfjw10U0mSh8KIfUpN2M4n6RnWY6fVfX7mYP72m3X9qR6bqWgkVlg0SrOmfs+THex/32xkCpFOq+QjAfZfnB9Pa5bpXYji9bi8UF+livs83I9PNuFIqBCmgImyf0GFu9j7cXB0eo0qPX7GuruGCn+NBl19X/rjaVZEFXvMmHunBpxHsSoYvU/SqsTqXEdvFotkTCu0Xif4o68kkvfSM+LXEVHv8VGtkTERL++TyJNYYXXq1EBm8MuSPPWKKeNX9hc8D2JFDlOpOufnR3f4VTn5wFcwe3vh/nP/wGnU7DitNv5XNSFXfPK/iu0LYlSAu58FbyMxWmfNMgRlaq9ObLhDwtlzkaAzDIjGvWK0TB06d4FoLGPwNuysCL2/HRgMlfIZ+LKDx8zBs2ggBK/h6rcDZ5/UQ7Rm5dZnP2lhwc8x2LoiVg6pk5vsxNwFFYm72yUOUf1V8VEpFSuHzNVRiUroPSVObhf7woHE1VHeJEao1gVPipXkIJS3+n3eEhHfc0+CkVQVH51Pl83AbyKfI6VYxlRMW5uW3hQeO9Nqo8jb65pLfElbG6btYWZ/pneJ0rYwQ9bEP7FzSozWipVk2gUlk3Bw0h4YvaBixH1mYbrjHXw50PWDXigDPpNU2wvBqJlkrg/GtVpauXUoaAOE1WvQ9SNVR4Urnrj3cXPya3zWC5Qh7na9iuALbn3groA4Yug9R6zoepFX35NW/awXyan6oimrW/ueHD2cfpqn0ciVGRWTRJd+YdKnifW9XJpQsUpUoitVqaHiY4lMrJ6k7Gu5spQZv21DFJAesaKLJ5FiU7hOIlY7rZwEo0SBX6yoNSJT12R5opbmQekXtQJUq/OQ3Cd8YO/LvPueSxV514fnWDDJWKQqjjjXk36w3KhtsMtly9nLGNKKM1UqJJFk+JEpTPhKdaJutdz8XHjzM/le1vCs8BULpJk5T94w3vwk8nL+nyNRPrFC9SeQ/NCN1lW6QMX5kIlwd12JXR8jn1glDPxr7aOx3xdSKhP3gmkgWFTG1eoOPnNTivnmAW8UvcAPqdJTQs9bg/tnhw5VSrFKeONmenEiOQ75u42XMU9OHfeEsNeh6hVNN/mrXh8rFabteQrTigJ+pupoLFyf2x36mKkjqI/Bjpw0ia3Bp3aspFrAqzGvdzrx6mOJIIZnxw5bcgJ1Y+0CfvTcDJapUTw+STT0VtIyPPVB7q67Xrtm13cQc0LjBuBEDbCB+6F2t32vHwJ6ovbjXmTDySdyPQkEVJjfcZ0ePJjrocDSPYjgsfO8z5Th1y9JmCKLgQ8Q9DpjZqrnIeD3FIEXf011e7qEy8/VmZ74MdVHfa2ntBj34ibPetaEa5IIFRTwhTGbjxhBhctDabn9XSjCsxdJ3/RPnN/kYyqnkcazSfS6lshZLi5/V0kx8AZafl858O/S3N5XznkuBt7e1o7LH1Dj8Jm5Zti9ImOSA4VH7/eJegGtEhGnFTZFbTUOGeMx0fT09p2Pmo6qxlJx/pE1FjkQ6+1/kml46ocTK4bH0qwPHPl3ClcvqrDEhI243uQweh7p1QfPtVk3POL+1ZcTg5874N579uYLN0P2t2jw7O30zUYXj9FNw7ApmGg4ejurscCz03Yb3TpGMx7S4jNZG7u/T2Jbe1lbl8pEQcAm4IjCjhaqjZy/PG6VWFavE2Btk1rwbMlhgmMP1raWUSix8/y+hRbtDDh2vhZtUny1jFNIyff8KiC3YNhS08jqKLHa1rAyvVvXi2OY0qpMprcOEqxMIbZfTeuEmpq/bGVwgmM3hS0yTnC83rbVy8zF20ptb9zu2yusGcHxzapeul2ndMoG9bYtcMYTF24LOVw68Ihj2Rpe69ZLfd6zG91Bz5O5G5CFBerPTPysnPljS4D8ob+R8NvHT5/efmJh/v/dDyi0pvfw47Hz7vcQGrWz5EDNT62on4yJNa6fNn5dfdY0n+5D/zWE6z7UwdBft1+8vv8D9vON7OlI69y0D8H6e6E3yLsVUASx8nCGrJU6stv9oARWgAu3TTflHo+P3NYr3Qq2HyE4EO6K6ei1wEJShHsWNNbzNUM8L6RiY6wu1P3jqPnKY/PX1TtM0eMlb3pqv/BuoWizd/Rxos5Ns5AMwdZNOavIzyP3TXu3d4Bhs1CCYScc+EAJ1LPbAw5WQBqRlVZH1fa+AobVz1a5AGjaUTWUYUSumX7HpeUN/umpDc38tIvtmcUfrvCzdGVaDyb/iDcbD31aVa/Ox2a0h9J1Fya4WC5DCsb5QOXi3OgFAxslI1rd4esrGZ6/OMwdxKqBWGHNpplergG/o5eNJbxcqWDYGuXRuVDJyt6yWki5XrN0g2/vbnfZzsvBwyjxw6ZwoCFa/aipu5040Bb5A38KSj56+xmp+PP/AQ==);strokeColor=none;spacingTop=-3;spacingBottom=-3;spacingLeft=-3;spacingRight=-3;points=[];labelBackgroundColor=none;rounded=0;html=1;whiteSpace=wrap;" vertex="1" parent="ltsCt4mNofAr8rePnj9i-10">
          <mxGeometry x="91" y="299.22444444444443" width="75" height="85.2222222222222" as="geometry" />
        </mxCell>
        <mxCell id="ltsCt4mNofAr8rePnj9i-13" value="&lt;div style=&quot;&quot;&gt;&lt;div style=&quot;&quot;&gt;&lt;span style=&quot;font-size: 11.64px;&quot;&gt;S3 Bucket for Flattened Data&lt;/span&gt;&lt;/div&gt;&lt;/div&gt;" style="verticalAlign=middle;align=center;overflow=width;vsdxID=248;fillColor=none;gradientColor=none;shape=stencil(nZBRDoQgDERP03+WHsHFe5iISyOCQdT19kIaIxq//Jtp3zTpAFaTaUYNUkwx+F6v1EYD+AUpyRkdKCYFqACrzgf9C352LfuxyWRWg1/yhT/nRE5IsZWuZtCSK8CPeI0e/hF+jV7AJM4PO7KWCyr390bSiNtEtQM=);strokeColor=none;spacingTop=-3;spacingBottom=-3;spacingLeft=-3;spacingRight=-3;points=[];labelBackgroundColor=none;rounded=0;html=1;whiteSpace=wrap;" vertex="1" parent="ltsCt4mNofAr8rePnj9i-10">
          <mxGeometry x="48" y="386.99518518518516" width="160" height="32.77777777777777" as="geometry" />
        </mxCell>
        <mxCell id="ltsCt4mNofAr8rePnj9i-14" style="vsdxID=249;fillColor=#F58534;gradientColor=none;shape=stencil(zVhbbsIwEDxNfle2189v2t4DCShRKSBKX7evoygU22QTF6fKn0NmzD5nHVe4eNsuj+tKsLfz6fCy/qxX522FD5UQ9X67PtVnv6rwscLF5nBaP58O7/tV+3xcNshm9Xr4aHb4anmKNRTBvttHztrnpxa7q/dX2BBqJGg7FqwZSNUPlg6cDghKAuf9hM7O6/1xPLyxXffD6aCEAZyVn5HhRoEyf04R5adCQDF2Z7TgiKAkMcnFCwGacJNbkCYkcGCynyA0CBUTHJGlGwQH3PUTUHUGXAgWBEGQApiNCZYwKSVIsMQfRJUjAKn+MOBEzuYJ3ueEyJiWcYq5AU14a7B7fSE4QEKdUgLtgeWgMIqQIzywGtDk7J/gORjCfoegwoojdDsWEeyqdRR6oNVTS7ykKSJXjsW17wkij6BAEOWZJssXICN8MBq0CwkaJJGuGwQLjAhqWtFDSp60jHIgCB9SgqZLKOp4jUBIYionA7unhMZ+ImmpJA7M0qaMs3Jwg6C7yTBycDR1REQpne6+ULPwdCfoLiAjW22gkf3i91i4qXe7y5u+02KB3vWjkiibWenmFNIWxrOA8PhBRx1N5jcZJxDn6JPmfuksfDyZQv1Dnwvoc8nzYeHREvpaQPi98koiONnH8ymGV6S8946W0h9JEwzH//rgTMZoLr7w2G0vcwaH7zyuavKuGGib8w8g4XajAzAXYOBwlHa/iC/t/E/thR8+/gA=);strokeColor=#000000;spacingTop=-3;spacingBottom=-3;spacingLeft=-3;spacingRight=-3;points=[];labelBackgroundColor=none;rounded=0;html=1;whiteSpace=wrap;" vertex="1" parent="ltsCt4mNofAr8rePnj9i-10">
          <mxGeometry x="20" y="104.74222222222221" width="76" height="83.03703703703702" as="geometry" />
        </mxCell>
        <mxCell id="ltsCt4mNofAr8rePnj9i-15" value="&lt;div style=&quot;&quot;&gt;&lt;br&gt;&lt;/div&gt;" style="verticalAlign=middle;align=center;overflow=width;vsdxID=251;fillColor=none;gradientColor=none;shape=stencil(nZBRDoQgDERP03+WHsHFe5iISyOCQdT19kIaIxq//Jtp3zTpAFaTaUYNUkwx+F6v1EYD+AUpyRkdKCYFqACrzgf9C352LfuxyWRWg1/yhT/nRE5IsZWuZtCSK8CPeI0e/hF+jV7AJM4PO7KWCyr390bSiNtEtQM=);strokeColor=none;spacingTop=-3;spacingBottom=-3;spacingLeft=-3;spacingRight=-3;points=[];labelBackgroundColor=none;rounded=0;html=1;whiteSpace=wrap;" vertex="1" parent="ltsCt4mNofAr8rePnj9i-10">
          <mxGeometry x="8" y="36.99999999999997" width="100" height="67.74074074074073" as="geometry" />
        </mxCell>
        <mxCell id="ltsCt4mNofAr8rePnj9i-19" value="" style="outlineConnect=0;dashed=0;verticalLabelPosition=bottom;verticalAlign=top;align=center;html=1;shape=mxgraph.aws3.redshift;fillColor=#2E73B8;gradientColor=none;" vertex="1" parent="ltsCt4mNofAr8rePnj9i-10">
          <mxGeometry x="180" y="109.00999999999999" width="70" height="74.5" as="geometry" />
        </mxCell>
        <UserObject label="&lt;div style=&quot;&quot;&gt;&lt;span style=&quot;font-size: 11.64px;&quot;&gt;&lt;b&gt;EXTERNAL SCHEMA&lt;/b&gt;&lt;/span&gt;&lt;/div&gt;" tags="Background" id="ltsCt4mNofAr8rePnj9i-20">
          <mxCell style="verticalAlign=middle;align=center;overflow=width;vsdxID=349;fillColor=none;gradientColor=none;shape=stencil(nZBRDoQgDERP03+WHsHFe5iISyOCQdT19kIaIxq//Jtp3zTpAFaTaUYNUkwx+F6v1EYD+AUpyRkdKCYFqACrzgf9C352LfuxyWRWg1/yhT/nRE5IsZWuZtCSK8CPeI0e/hF+jV7AJM4PO7KWCyr390bSiNtEtQM=);strokeColor=none;spacingTop=-3;spacingBottom=-3;spacingLeft=-3;spacingRight=-3;points=[];labelBackgroundColor=none;rounded=0;html=1;whiteSpace=wrap;" vertex="1" parent="ltsCt4mNofAr8rePnj9i-10">
            <mxGeometry x="175.5" y="47.74" width="79" height="57" as="geometry" />
          </mxCell>
        </UserObject>
        <UserObject label="&lt;div style=&quot;font-size: 1px&quot;&gt;&lt;font style=&quot;font-size:11.64px;font-family:Helvetica;color:#000000;direction:ltr;letter-spacing:0px;line-height:120%;opacity:1&quot;&gt;&lt;b&gt;ATHENA&lt;/b&gt;&lt;/font&gt;&lt;/div&gt;&lt;div style=&quot;font-size: 1px&quot;&gt;&lt;font style=&quot;font-size:11.64px;font-family:Helvetica;color:#000000;direction:ltr;letter-spacing:0px;line-height:120%;opacity:1&quot;&gt;&lt;b&gt;DATABASE&lt;/b&gt;&lt;/font&gt;&lt;/div&gt;" tags="Background" id="ltsCt4mNofAr8rePnj9i-21">
          <mxCell style="verticalAlign=middle;align=center;overflow=width;vsdxID=349;fillColor=none;gradientColor=none;shape=stencil(nZBRDoQgDERP03+WHsHFe5iISyOCQdT19kIaIxq//Jtp3zTpAFaTaUYNUkwx+F6v1EYD+AUpyRkdKCYFqACrzgf9C352LfuxyWRWg1/yhT/nRE5IsZWuZtCSK8CPeI0e/hF+jV7AJM4PO7KWCyr390bSiNtEtQM=);strokeColor=none;spacingTop=-3;spacingBottom=-3;spacingLeft=-3;spacingRight=-3;points=[];labelBackgroundColor=none;rounded=0;html=1;whiteSpace=wrap;" vertex="1" parent="ltsCt4mNofAr8rePnj9i-10">
            <mxGeometry x="20" y="47.74000000000001" width="79" height="57" as="geometry" />
          </mxCell>
        </UserObject>
        <mxCell id="ltsCt4mNofAr8rePnj9i-25" style="edgeStyle=orthogonalEdgeStyle;rounded=0;orthogonalLoop=1;jettySize=auto;html=1;entryX=0.5;entryY=1;entryDx=0;entryDy=0;entryPerimeter=0;" edge="1" parent="ltsCt4mNofAr8rePnj9i-10" source="ltsCt4mNofAr8rePnj9i-12" target="ltsCt4mNofAr8rePnj9i-19">
          <mxGeometry relative="1" as="geometry" />
        </mxCell>
        <mxCell id="ltsCt4mNofAr8rePnj9i-18" value="" style="edgeStyle=orthogonalEdgeStyle;rounded=0;orthogonalLoop=1;jettySize=auto;html=1;" edge="1" parent="1" source="ltsCt4mNofAr8rePnj9i-7" target="ltsCt4mNofAr8rePnj9i-11">
          <mxGeometry relative="1" as="geometry" />
        </mxCell>
        <mxCell id="ltsCt4mNofAr8rePnj9i-7" value="" style="rounded=0;whiteSpace=wrap;html=1;" vertex="1" parent="1">
          <mxGeometry x="-570" y="375" width="150" height="160" as="geometry" />
        </mxCell>
        <mxCell id="ltsCt4mNofAr8rePnj9i-5" value="" style="sketch=0;outlineConnect=0;fontColor=#232F3E;gradientColor=none;fillColor=#7AA116;strokeColor=none;dashed=0;verticalLabelPosition=bottom;verticalAlign=top;align=center;html=1;fontSize=12;fontStyle=0;aspect=fixed;pointerEvents=1;shape=mxgraph.aws4.simple_storage_service_directory_bucket;" vertex="1" parent="1">
          <mxGeometry x="-530" y="409.84000000000003" width="75" height="78" as="geometry" />
        </mxCell>
        <mxCell id="ltsCt4mNofAr8rePnj9i-6" value="S3 Landing Bucket (Parquet)" style="text;html=1;align=center;verticalAlign=middle;whiteSpace=wrap;rounded=0;" vertex="1" parent="1">
          <mxGeometry x="-545" y="490" width="93.75" height="30" as="geometry" />
        </mxCell>
        <mxCell id="ltsCt4mNofAr8rePnj9i-26" style="vsdxID=24610000;fillColor=none;gradientColor=none;strokeColor=none;spacingTop=-3;spacingBottom=-3;spacingLeft=-3;spacingRight=-3;points=[];labelBackgroundColor=none;rounded=0;html=1;whiteSpace=wrap;" vertex="1" parent="1">
          <mxGeometry x="160" y="160" width="240" height="590" as="geometry" />
        </mxCell>
        <mxCell id="ltsCt4mNofAr8rePnj9i-27" style="vsdxID=246;fillColor=#ffffff;gradientColor=none;shape=stencil(tZPfDoIgFMafhtuGh63VtdkL9ARMKFkmhljW04eeconTaCuuzp8ffNv5DoTFVcZLSYBW1uijvCphM8I2BEAVmTTKuoiwhLB4r408GF0XAvOSOxJoV5EC70QtDZSbdKfuEmuwWqwHZ4kQvnLSl1a9ed6nFJs3zDHbIpqrIhQ911y0aOSz0TtMG/D78FE3XHVe8yeKLuhsQINUnqOLff8fHgU7NARfMw6aVW/IxLS8x+Y3Y155tBsj7dF2fKU+7ZfnlQv8L+ZK+D1Z8gA=);strokeColor=#000000;spacingTop=-3;spacingBottom=-3;spacingLeft=-3;spacingRight=-3;points=[];labelBackgroundColor=none;rounded=1;html=1;whiteSpace=wrap;" vertex="1" parent="ltsCt4mNofAr8rePnj9i-26">
          <mxGeometry width="240" height="590" as="geometry" />
        </mxCell>
        <mxCell id="ltsCt4mNofAr8rePnj9i-32" value="&lt;div style=&quot;&quot;&gt;&lt;br&gt;&lt;/div&gt;" style="verticalAlign=middle;align=center;overflow=width;vsdxID=251;fillColor=none;gradientColor=none;shape=stencil(nZBRDoQgDERP03+WHsHFe5iISyOCQdT19kIaIxq//Jtp3zTpAFaTaUYNUkwx+F6v1EYD+AUpyRkdKCYFqACrzgf9C352LfuxyWRWg1/yhT/nRE5IsZWuZtCSK8CPeI0e/hF+jV7AJM4PO7KWCyr390bSiNtEtQM=);strokeColor=none;spacingTop=-3;spacingBottom=-3;spacingLeft=-3;spacingRight=-3;points=[];labelBackgroundColor=none;rounded=0;html=1;whiteSpace=wrap;" vertex="1" parent="ltsCt4mNofAr8rePnj9i-26">
          <mxGeometry x="6.620689655172414" y="36.99999999999997" width="82.75862068965517" height="67.74074074074073" as="geometry" />
        </mxCell>
        <mxCell id="ltsCt4mNofAr8rePnj9i-33" value="" style="outlineConnect=0;dashed=0;verticalLabelPosition=bottom;verticalAlign=top;align=center;html=1;shape=mxgraph.aws3.redshift;fillColor=#2E73B8;gradientColor=none;" vertex="1" parent="ltsCt4mNofAr8rePnj9i-26">
          <mxGeometry x="80.6896551724138" y="257.75" width="57.93103448275862" height="74.5" as="geometry" />
        </mxCell>
        <UserObject label="&lt;div style=&quot;&quot;&gt;&lt;span style=&quot;font-size: 11.64px;&quot;&gt;Redshift Tables (Heap)&lt;/span&gt;&lt;/div&gt;" tags="Background" id="ltsCt4mNofAr8rePnj9i-34">
          <mxCell style="verticalAlign=middle;align=center;overflow=width;vsdxID=349;fillColor=none;gradientColor=none;shape=stencil(nZBRDoQgDERP03+WHsHFe5iISyOCQdT19kIaIxq//Jtp3zTpAFaTaUYNUkwx+F6v1EYD+AUpyRkdKCYFqACrzgf9C352LfuxyWRWg1/yhT/nRE5IsZWuZtCSK8CPeI0e/hF+jV7AJM4PO7KWCyr390bSiNtEtQM=);strokeColor=none;spacingTop=-3;spacingBottom=-3;spacingLeft=-3;spacingRight=-3;points=[];labelBackgroundColor=none;rounded=0;html=1;whiteSpace=wrap;" vertex="1" parent="ltsCt4mNofAr8rePnj9i-26">
            <mxGeometry x="59.37931034482759" y="320" width="100.55172413793103" height="57" as="geometry" />
          </mxCell>
        </UserObject>
        <mxCell id="ltsCt4mNofAr8rePnj9i-9" value="Schedule and Export" style="text;html=1;align=center;verticalAlign=middle;whiteSpace=wrap;rounded=0;" vertex="1" parent="1">
          <mxGeometry x="-660" y="420.00000000000006" width="70" height="30" as="geometry" />
        </mxCell>
        <mxCell id="ltsCt4mNofAr8rePnj9i-4" value="" style="shape=image;html=1;verticalAlign=top;verticalLabelPosition=bottom;labelBackgroundColor=#ffffff;imageAspect=0;aspect=fixed;image=https://cdn1.iconfinder.com/data/icons/unicons-line-vol-1/24/adobe-128.png" vertex="1" parent="1">
          <mxGeometry x="-760" y="420.00000000000006" width="57.68" height="57.68" as="geometry" />
        </mxCell>
        <mxCell id="ltsCt4mNofAr8rePnj9i-40" value="Adobe (Events Data)" style="text;html=1;align=center;verticalAlign=middle;whiteSpace=wrap;rounded=0;" vertex="1" parent="1">
          <mxGeometry x="-772.32" y="490" width="82.32" height="30" as="geometry" />
        </mxCell>
        <mxCell id="ltsCt4mNofAr8rePnj9i-45" value="" style="edgeStyle=orthogonalEdgeStyle;rounded=0;orthogonalLoop=1;jettySize=auto;html=1;" edge="1" parent="1" source="ltsCt4mNofAr8rePnj9i-41" target="ltsCt4mNofAr8rePnj9i-44">
          <mxGeometry relative="1" as="geometry" />
        </mxCell>
        <mxCell id="ltsCt4mNofAr8rePnj9i-41" style="vsdxID=255;fillColor=#8C4FFF;gradientColor=none;shape=stencil(pVnbcts4DP0av3JIgjc9d9v/6LTpJrPZpJOmu8nfFx6LJHQgUnb7Zss4Iq4HIHyiDz/uP3+/O3n74/Xl+Z+7/x++vt6f6K+T9w9P93cvD6/86UQfT/Th2/PL3d8vzz+fvl6+f/98ljx/+vf5v/Mb3i44e0Z4+y6/fboIPj48CUFnf1u0ft8V/m3RjSB/6BZ+e3h8bL+MDKfFJNq80AdT3Pj04E1c/hDgTIljwI5KNwNQJTA6mZS3gGRocoCWt4ayBHz5+XI5wWnI+sgtJl6ssG9+lcqGqubrI1dMWd31RqtUMW4FvhNK7fs8GLtVWAFQYYbUc5vCQpVVuxBNTKCwMIu0FA0cBgoLxH5ElL4CsT7y2TgH+gqrfJPKBfQV7iKU2s8IEZIBQGWEiLXTqnidN16bRVqK9v21zfjoTCjbhIhmmaR8DCaEPwR4s6QJQKt0MwBV2hodiol+C8gmzKhKA9qZozQUkFo21qQEabgYV1WvZWO3IY2V1mnz+74nmt29YcyUjMnkiEpuNYzNM0LDbgdpKRp4CFQViEEMlLYC0pnIEygsbBpTp/TUddQZoRMf8qYI7YQ3RZp4bRNpKRp4C+paVR1Zk8Mt8bgZcECNWqWbAUolMLrxxJUjSOwBGQFUEi4mQxJ2TAtral2ts3VsLFXDKqUGbL3VVwJWj3jj/UxfCakNh4wNUDTCKt+kMtSM8BaB0L57VTxQXnnXGxeUthmUFXzvtUmkpWjgrKM+cjRrSITTYfbaKK9ThrSzaJCMkO5bRgpHo2fgQQMmuY6Ro+cCoydLeSB8cm1Cee/TaJ4M4yE1k1eFE18AwlTh1F3iGgYnIzbLgnsTpwOOnkKKmhRNik0iVkCqVTLhfGj6iZ0O5MBZoxRmKX+YD+fzZ5OWKjdl4U69KQ8L31WFSSvs1bDMUg7oQUUY6KzUemz8gDmk6Mz3idzp7OwVl4DOZKYPJitVQNty8+qyx9O2n+YDQwLSWTQFKq6xTKczvsNsdRUy1GTsdAARkHq2NQWLh50HZ1sDzMTTR0Det8beNC8z9S7ze3ExpJnf4i3I9wKrj4LxQP1+MYtX3nLTUJ17A4zCHF51/mKwTfYxaJRXdDTYco8u2KPFaztHqB6dag60wzNHJmnb5zNCt8o1p2ZSx++43kFfYPbAlQSHMU2GBEZEPXhOWSv7npBVYWcKKJzb4CCmBNxICKFr60pAek1HdTauQ2Th98MJqxop5eiCx+7Ls7uxBhztIySkJggXJw41euHDUgtcXCLkwjnTpvzOTYRgomIMnu2qze1sTvuanb0MDVxJu9D40h6ABOSLK2emPvv4riOyZtQDB1s/n9D4xoPtmJ0KySW3Ut31wIE7qysV+aPd4EFuXdEQ1d75spg/3D6n3tPXV+el8tqYRJEUGJMgdufrEKROsY35W+pwA4HYsVSa3VVdm5pWhcti4vyuY3sWu4YpOHvZXhDro+VgQ7RMdz6hO6Ueu8DOh0U8zHtSsz4WLFDeymbIMNGbBl5VbZm1hbFAxqu35QitUcaemlSGqB5mFWMWYPtc2mFiilLn90Vwc5hr+9p2fgE+PNp+3w6Y3tD1oHazfPuP5fpFKEcwIKdlU7AunVpv71ziutSI1NJ2w3MAgEt14QneT6Rju91d+Xp1R1OAK3Yi0jXjpYh083gpogJ4tBSZZ4he2t0sP09xvbNTgJ2dnWoNojx7a7BwD5Ol3nd2PikPbklk/G8rf8B/nvnR5V9r+vgL);strokeColor=#ffffff;spacingTop=-3;spacingBottom=-3;spacingLeft=-3;spacingRight=-3;points=[];labelBackgroundColor=none;rounded=0;html=1;whiteSpace=wrap;" vertex="1" parent="1">
          <mxGeometry x="-390" y="390" width="59" height="59" as="geometry" />
        </mxCell>
        <mxCell id="ltsCt4mNofAr8rePnj9i-42" value="Ingestion Glue Job" style="text;html=1;align=center;verticalAlign=middle;whiteSpace=wrap;rounded=0;" vertex="1" parent="1">
          <mxGeometry x="-391" y="460" width="60" height="30" as="geometry" />
        </mxCell>
        <mxCell id="ltsCt4mNofAr8rePnj9i-43" value="" style="verticalLabelPosition=bottom;html=1;verticalAlign=top;align=center;strokeColor=none;fillColor=#00BEF2;shape=mxgraph.azure.cloud_services_configuration_file;pointerEvents=1;" vertex="1" parent="1">
          <mxGeometry x="-438.64290123456783" y="251.55" width="47.64506172839506" height="56" as="geometry" />
        </mxCell>
        <mxCell id="ltsCt4mNofAr8rePnj9i-44" value="" style="shape=image;verticalLabelPosition=bottom;labelBackgroundColor=default;verticalAlign=top;aspect=fixed;imageAspect=0;image=data:image/jpeg,/9j/4AAQSkZJRgABAQAAAQABAAD/2wCEAAkGBwgHBgkIBwgKCgkLDRYPDQwMDRsUFRAWIB0iIiAdHx8kKDQsJCYxJx8fLT0tMTU3Ojo6Iys/RD84QzQ5OjcBCgoKDQwNGg8PGjclHyU3Nzc3Nzc3Nzc3Nzc3Nzc3Nzc3Nzc3Nzc3Nzc3Nzc3Nzc3Nzc3Nzc3Nzc3Nzc3Nzc3N//AABEIAJQApAMBEQACEQEDEQH/xAAcAAEAAgMBAQEAAAAAAAAAAAABAgUEBgcAAwj/xABJEAABAwMBAwcGCgcGBwAAAAABAAIDBAURBhIhMQcTIkFRcdEyYZGhscE2QlJVYnJ0gZOyFBUXNYKS0hZjlLPh8CMmNEVTovH/xAAaAQEAAgMBAAAAAAAAAAAAAAAAAQMCBAUG/8QANBEAAgIBAQUDCgcBAQAAAAAAAAECAxEEBRITITFBUaEUIjJSYXGBkbHBFTM0QtHh8CMk/9oADAMBAAIRAxEAPwDX17c555AIKECgEFASBQgQgFSBUECEAqSBCAQUBJAIQgUAoBCECCgFSCWUIwVCxLxQHkAhCBQCCgJBCBQCpAhQQIQCpIFASCAQgFCBQCEAoQSCAUBTqC8kEIFAbVo3SB1JT1FQ+r5hkMnNgBm0ScA+9c/W67yZqKWcllde/wA8mxfsviH/AHWT8EeK0vxl+p4lnk67z37LovnST8EeKfjL9TxHk67zQrvRi3XSqo9svEEhYHEYzjrwuzTZxK4z7zXksPBihWGIoBUgVBAhAIUkCgNt0vo4X62msNaYcSOZsiMHh15yuZrNo+T27m7kvrp31nJcfs0b86O/BHitX8ZfqeJn5N7Tx5NRjo3Q56swjxT8ZfqeI8m9podRE6nqJoHkF0UjmEjgcHHuXbjLeipd5qtYeD5rIgkhAhAVAKgvEICQQg6lySv5uw3J4GS2pJx/A1cDbCzdH3fc2aPRZmVLKHXtjbVW+ofTVsYwCHkGN3HZcBxHnVUXZs+7dmsxfj7iWlbHKOYVzbjb6uWlrJKiOaI4c0yu8d48679fDsgpxw0/YjWeU8GISXOJcSSeJJySrUkjE9lASQgQgFSBCggQgFSQfaKpqIm7MU8kbexjyPYsXCMnzWScs2/Rdgrbu9tbXVNS2gactHOuBmP9K5Wv1ddK3IJbz9i5F9VblzfQ3q1XyluNyqqGi6TKNrQ6QHcXEkYHdjiuNdpp1VxnP9xsxmpSaXYcfuv72rvtMv5yvWU/lR9y+hz5+kzGVhiIKAUIKhQbAgoQKA6jyUfB26/aD/ltXB2t+fD3fc2KfRZz6w3irslZHWUMmHAAOYfJkb2FdjUUQvi4zNeMnF5Om1dLbOUCytqaRzYa6IYBcelE7jsuxxae1cGE7dn27sucX4+1Gy1GyOV1OXV1HUW+rkpayJ0U0Zw5p9o8y9DXZCyKlB5TNVpp4Z8FmQIKAkChA5QCpAqCBQG36L0k+7SNrbgwsoGHc07jMfN9Hz9a5m0NeqFw6+cvoX1Vb3N9DO1pq1uw60WVwZA0bEsrOG7dsN83nVOg2e0+Nd16pfdk22/tiT5Jv+quX1I/a5NtejD4jTdpp12/e1f9pl/OV1afyo+5fQ15+kzGVpiKAUBULEvPKQOdyEFnbL7dLVDLBbqx0EUrtp7WtacnGOsdgVFumqtkpTjlmSk4rCK8bhhXmJYWS71dlr2VlE/Dxue0+S9vYQqb6IXw3JomMnF5RO+3iqvlwfWVhG0RssY3gxvUB6U09EKIbkRKW88srxv3Dj2K4wLy36UvtwaHwW6VrDwdMObHr3rVs12nr5OXy5mark+wtmcnF/e3Jdb2HsfO73MK1ntbTLv+X9mXAmfQ8m18BGzU20jrzK/+hR+L6fufyX8k8CZi1Gg9QQNJEEEw/uZQfbhWx2nppdXj4GLpmihraGroJObraWaB/ZIwjPcev7luQshYsweSuUWuqPgszEu2aoubLH+qGy4h8kP+OGfJz2LUeip43GxzLOLLd3SmC3Coz7VeK+0Okdb5zCZAA8gA5xw4jzqm7T1XY4izgyjNx6GLJK6aV8sh2nvcXOPaSclWpKKSRi3nmCkCEIFAU4WJeSQCpAgoQIQGdarVcLtLzdupZJyOJaOi3vPAKq2+ulZm8EqLfRHwqYJaWplpqhuxLE8seOwg4WcJqcVKPRmLWDpeg7TQ27Tv6+npn1NU5rnjZbtOY0btlo7dy4W0LrLb+BF4X+6mzXFKO8VVy5S7jM8i3U0FOzPGTpv8Fs1bIqS895fyMJXvsKWbWWopjl10lb5mNa32BbcdBpl+ww4k+8+bdV39pyLtU/e4FT5Fp/URHEn3lhSa+1BTkc5Ux1DR1SxN9owqp7L00+ix7iVdNG56c1HT6vjmt9wthyGZecbUR+/qK5Op0ktE1OE/5L4TVnJo53qe2MtF8qqKJ2YmOyzPENO8A93Bd3SXO6lTfU1bI7smj6x6ZvElsiuMFI6aCRu0Ob3uxn5PH0LF62hWOtyw0FVLGSpILSWuBBBwQRghbSfcYM8pIFAIKAkEAoQU6xNgQUIJIBGTuAJ7gpB0XS+gYm0/6x1MebiA2xTl2yA3jl56u70ri6rabb4dHXv/AILoVdsjLu/KHQW5n6Hp6jZIGbhIRsxDuA3n1KqnZdlnn3v+SXalyic7uNdPcq6Wsqy108py8taGj0Lt1VxqioR6Ioby8nV9M3EWjk7guD4jK2CNzixpwT0yvPaqp3a11rt/g2YPdryYkl30NqAB1wZFDM7jzzTG/P1m+KsVGv07xDmvn4Eb1cuoDSGjqkbVLcAAfkVgd7cqfL9bHlKPgRwq2I0Lplm99xkx56hgT8R1b6Q8GOFABatA2xwfNUU8z29T6l0v/qDj1Jx9o28kmvhjxI3KolnY9WWmtusVos1K8Rlrnc5sBjBgdQ4n1LX1Giurrd1rM42Rct1GicofwsrPqs/KF2tm/po/H6mvd6Z97Drq5WuOOnnbHV0sYDWsIDHNaOABHvBWGo2XVa3KPJsmF0o8jbANOa5gJaDDXNbn5MrPRucPSub/AOrQS584+H9FvmW+80HUNhq7BVc1VAOjfnmpm+S/wPmXa0uqhqIZj17Ua04OD5lUtorFASBQCgKhYl55AIUkG9cldkZX3SW4VDA6KjxzbTwMh6/uHtXJ2rqHXWoR/d9C2qOXkxNe6pnvVwko6eRzbdTvLWsG7nXAnpHtHZ6Vbs/SRpgpyXnPwIslvPBqgK6JUOUB1yx0Et05MmUNOWiWaFzWFx3Z2iV5y+1Va/fl0T+xsxW9XhHM7jaLla5DHXUU0P0iwlp7ncCu9XfVaswkmazi11Rg9E8cK7mYiGsG/DfQoyD6RNdI7ZiaXk8Gsbk+gI2kssLmb9ydadulPeI7nV0r6enbG5oEw2XuyOpvH04XG2nq6ZVcOLyy+mEt7LKblE+FlX3M/KFt7N/TR+P1MLvTZrgW8VH0gmlp5mTwPdHKw5a9pwWlRKKnFxl0ZK5PJ1O0VMWttLTU1YB+lxDYc7GOnjovHf4rzl0JaDUqcOj/ANg2oviwwzlr2PikfHIMPY4tcOwjivSJprKNP2ApIFAIKAqViXigPIDqHI9URuo7pRbWJOcbL59kjZ93rXC2xF70J9nQup6NHPLrQzWy5VNFUNIkhkLTnrGdxHmIwV2arI2VqUe0paw8GMrSBCEHWrPXT2zkvbW0hAmhic5u0MjO32Lzl1cbdobkujf2NmLxXlFdQcqGW7Fztm12ugdx/hd4q+zY/PNcvn/Rir+9GYdY6Oq99VbyCePOUbXezKr8g1sPRl4k8St9hFupNBxdKOgiz5qD/RT5JtF9ZeI4lfcSfyiWKkbigtk5I4YjZGPb7lC2VqJ/mSXiONBdES01rWuvupIaQwRQUpY9xa07TiQN2T4Jqtnw09DnnL5CFjlLGDVOUT4W1ncz8oXS2b+lj8fqU3ema4FvFQhAdK5K6R9PQ19wmyyGUgMJ6w3JJ9a4O17FKca11X3NnTrCbOfV0zaivqp2eTLM97e4uJ967dcd2Ci+xL6GtLm8nxWZAqSBQFQCsTYJBCBQFjYbxU2K6Q11JguZuew8JGni0/77FTfRG+t1yMoycXk6hcLbZuUG2trrfOIq+NuyHkdJnXsPHZv4+hcKq6/Z89ya81/7KLnGNiyc0vdgudjmLLhSvYz4szRtRu7j7l3KNTXeswfw7SiUXHqVq2DE7LpSghunJ7T0NQ5zYpo3NcWnBHSK8xq7HVrXOPVGzBZhhmo3Pk1vFM5xoZYKuPq37D/vB8V0qtrUy9PkVOmS6FJLpXUEJxJaKvP0Gh/sytuOt00uk0YOuXcQbpy+O4Weu/AcFl5Xp/XRG5LuM6j0RqKpcAbeYQfjTPa335VU9o6aH7s+4yVU32G86N0S6xVgr6yqbLU7BaxkY6Lc8d54rka3aK1EeHFYRdXVuvLZpfKJ8Lqz6rPyhdbZv6aPx+pRd6bNdja57wxjS5zjgNaMknuW8+SyyvBuumNBVVa5lTeQ6mpRv5k7pH9/yR61ydVtSEE41c339iLoUt85dDN1rqemgov1DY3NETW81NJH5LGjdsN95VWg0UpS493+9plbYkt2Jz9dw1cCoAhAKkFQsS8QUBIFCBQGVbrhWWyqbVUFQ+CZu4OaersI4EeYrCyuFkd2ayiU2joVn5TIJom02oaPaDtzpYmhzT3sPuyuNdslxe9TL5/yWq1fuNEvtRS1N4q5rfCyGldIeaYxuBsjrx5+K69EZwqipvLKZNZyjo9CJH8kjv0cPdLzDi0R52s7fVhcSzH4l53TPb7i9flGmW/W2oKBoZHcDKwbgyoaJPWd/rXVs2fp59Y49xTxJouoOU+7NbiajpJHdo2m+9ar2PT2SZmrn3H1PKjcCOjbqX+dxWK2PX2yY477jCquUa/zAiD9Fp29rItoj0nHqVsdladdcsx40jL0FcrpdtXRS11TUVDY4ZNok9FmRu3DcFhr6aatM1BJc0TXKUpcys5RT/zdWdfRZ+ULY2a//NH4/Uwu9Nl/YNTabsdkppWUgdcjHiVkUeXlw3ZLjwzxWlqNFqr7mm/N9pbGyEV7Sj1Dra53kOhjIpKV3GOI73D6TvctzT7Oqp5vmyudspGtjit8pEIBUgQoIEICoCg2BQgQgJBCBQHlIEHsUEG2aN1nPp5ppZ4jUULnF2wDhzCeJb4Ln6zQR1D308SLIWbvJm2uqdA6iJlqBTU87vKL8078+cjAPrXPUNoabkstfMs/5yD+wGmarpUdzkA/u52PU/ieqhynHwZHCg+jPDk1srd7rpUkfWZ4J+LX+ovH+Rwo94/2a0PbTmtrYZHD4stX7mkJ5Xr7OUY/JE7la7T51uurJZ6V1NpyiY9wGG7MfNxg9vDJU17NvulvXy+7IdsYrzUc5rauevrJquqeXzTPLnuPb4Lu11xhFQiuSNdtt5Z8R6lkYigFASBQgUAqQKggqFBsDlAKEG76E0lQahtNbV1sk7JKeUsaIn4GNgHs865mu1lmnsjGHRlkIKSyaUw5aO5dQqN70Fox1zLLpdmFlA05jifu5/HWexvt7lydfr+F/wAq/S+hbCvPNlBq4WgX2cWEk0vXjyNrr2Po/wCq3NHxuCuN1MJpb3IpgVsmBJSALGO8prXd4RNroDwjj/8AGz+UKd5kE2gAYAwFAJ5QgcoDoOm9N2O/6XdHSzbN1bgyyu8qN/Zj5H/1cXU6vUafUZmvN7F3r+TYjCM48uppNyoKm11stHWxOjmjOMEbnDqIPWD2rrVWxtipweUzXlHdeGbDoPTtJqGasZWPlYIGsLebdjOc+C09oauzTKLh2llUFPOTXq+JtPX1UDMlkUz42k8cBxHuW9XLehGT7UitrDaPiCsjEQgFSCoWJeIQCEB1fki+Dd2+0H/LauDtf86Hu+5bV0ZR8n2ijc2x3S7sLKBozHE4YM3Defoe1bO0Neq81185Pw/sxhDPN9D7691sKsPtFkeG0TejLNGcc5j4rcfF9vcsdBoNz/rb17v92iyeeSNCC65UeQCNyEEkAqQIKECEBLKEGbaLpV2euZWUMhZI07wfJeOwjsVV1MLoOE+hMZOLyjpz2WvlCsm1GRBXwjvdC7sPa0/73rgJ27Otx1i/H+zZ822PtMLkyoKq13e8UdbEY5mMj4jc4ZdgjtHnV21LYW1Vzg8p5+3UxpTTaZoF4/fFw+1S/nK7VP5UfcvoUS6sxMqwxJBCBQFQoNg8hBIIDrfIxsuslyacHNXvH8DVwNsfmx933LquhsWrLLc7xQtoLZXxUFMRiX/hEucPkjBGAtPS31Uy35x3mZyTawaV+yWt+eafH2d39S6b2zD1H8yrgvvNHu1E62XOqoHyCR1PIWF7RgOx14XVqs4lamu0qaw8GKsyDyAQUIJIBUgQUIEIDbNMaJqdQ239Nhr4oGiQx7Loi47u4hc7U7QjprNxxyWQqc1nJsdp0Bd7RXR1lFe4WSMO8cw7Dx1gja4LSu2nTdBwnW/n49CyNUovKZ0COPBEj2s53ZDXOaPV3LjN9i6F5+f7v+9689Rqpcfzlezp/Kj7l9DQl1ZiqwxEICQKEFQoNgUB5SQZVHcKyiLjRVc9OXDpc1IW578KudcJ+kskptdDKGoLz87V3+Id4rDyan1F8hvPvJf2gvPzrXf4h3ink1PqL5DefeYMksk8r5Znukkecue45JPaVckksIxI5QgkgPIBCEEggPKQOUIM2ludwpI+apa6ohjznZjkLRnuCrnTXN5lFMlSa6H2F9vHzpW/ju8Vj5NT6i+RO8+88b3dnAh1zrSDuI593ii09K/YvkRvPvMFXGIoQKAUBUqC8QgFAIQgQgEIBQgQUBJCBQHkAgoQSQCpAgoQIQEkIFAeQCEIFAVA4qDYJBCBQCgYhCBQChAoCSAQhAoDwQCEIJIBUhiOCEEkAhCBQHggEIQf/9k=;" vertex="1" parent="1">
          <mxGeometry x="-350" y="251.55" width="60.34" height="54.45" as="geometry" />
        </mxCell>
        <mxCell id="ltsCt4mNofAr8rePnj9i-46" style="edgeStyle=orthogonalEdgeStyle;rounded=0;orthogonalLoop=1;jettySize=auto;html=1;entryX=0.5;entryY=1;entryDx=0;entryDy=0;entryPerimeter=0;" edge="1" parent="1" source="ltsCt4mNofAr8rePnj9i-41" target="ltsCt4mNofAr8rePnj9i-43">
          <mxGeometry relative="1" as="geometry" />
        </mxCell>
        <mxCell id="ltsCt4mNofAr8rePnj9i-47" value="Config File" style="text;html=1;align=center;verticalAlign=middle;whiteSpace=wrap;rounded=0;" vertex="1" parent="1">
          <mxGeometry x="-451.25" y="220" width="60" height="30" as="geometry" />
        </mxCell>
        <mxCell id="ltsCt4mNofAr8rePnj9i-48" value="RDS&amp;nbsp;" style="text;html=1;align=center;verticalAlign=middle;whiteSpace=wrap;rounded=0;" vertex="1" parent="1">
          <mxGeometry x="-350" y="220" width="60" height="30" as="geometry" />
        </mxCell>
        <mxCell id="ltsCt4mNofAr8rePnj9i-49" style="edgeStyle=orthogonalEdgeStyle;rounded=0;orthogonalLoop=1;jettySize=auto;html=1;" edge="1" parent="1" source="ltsCt4mNofAr8rePnj9i-11" target="ltsCt4mNofAr8rePnj9i-27">
          <mxGeometry relative="1" as="geometry" />
        </mxCell>
        <mxCell id="ltsCt4mNofAr8rePnj9i-50" style="vsdxID=255;fillColor=#8C4FFF;gradientColor=none;shape=stencil(pVnbcts4DP0av3JIgjc9d9v/6LTpJrPZpJOmu8nfFx6LJHQgUnb7Zss4Iq4HIHyiDz/uP3+/O3n74/Xl+Z+7/x++vt6f6K+T9w9P93cvD6/86UQfT/Th2/PL3d8vzz+fvl6+f/98ljx/+vf5v/Mb3i44e0Z4+y6/fboIPj48CUFnf1u0ft8V/m3RjSB/6BZ+e3h8bL+MDKfFJNq80AdT3Pj04E1c/hDgTIljwI5KNwNQJTA6mZS3gGRocoCWt4ayBHz5+XI5wWnI+sgtJl6ssG9+lcqGqubrI1dMWd31RqtUMW4FvhNK7fs8GLtVWAFQYYbUc5vCQpVVuxBNTKCwMIu0FA0cBgoLxH5ElL4CsT7y2TgH+gqrfJPKBfQV7iKU2s8IEZIBQGWEiLXTqnidN16bRVqK9v21zfjoTCjbhIhmmaR8DCaEPwR4s6QJQKt0MwBV2hodiol+C8gmzKhKA9qZozQUkFo21qQEabgYV1WvZWO3IY2V1mnz+74nmt29YcyUjMnkiEpuNYzNM0LDbgdpKRp4CFQViEEMlLYC0pnIEygsbBpTp/TUddQZoRMf8qYI7YQ3RZp4bRNpKRp4C+paVR1Zk8Mt8bgZcECNWqWbAUolMLrxxJUjSOwBGQFUEi4mQxJ2TAtral2ts3VsLFXDKqUGbL3VVwJWj3jj/UxfCakNh4wNUDTCKt+kMtSM8BaB0L57VTxQXnnXGxeUthmUFXzvtUmkpWjgrKM+cjRrSITTYfbaKK9ThrSzaJCMkO5bRgpHo2fgQQMmuY6Ro+cCoydLeSB8cm1Cee/TaJ4M4yE1k1eFE18AwlTh1F3iGgYnIzbLgnsTpwOOnkKKmhRNik0iVkCqVTLhfGj6iZ0O5MBZoxRmKX+YD+fzZ5OWKjdl4U69KQ8L31WFSSvs1bDMUg7oQUUY6KzUemz8gDmk6Mz3idzp7OwVl4DOZKYPJitVQNty8+qyx9O2n+YDQwLSWTQFKq6xTKczvsNsdRUy1GTsdAARkHq2NQWLh50HZ1sDzMTTR0Det8beNC8z9S7ze3ExpJnf4i3I9wKrj4LxQP1+MYtX3nLTUJ17A4zCHF51/mKwTfYxaJRXdDTYco8u2KPFaztHqB6dag60wzNHJmnb5zNCt8o1p2ZSx++43kFfYPbAlQSHMU2GBEZEPXhOWSv7npBVYWcKKJzb4CCmBNxICKFr60pAek1HdTauQ2Th98MJqxop5eiCx+7Ls7uxBhztIySkJggXJw41euHDUgtcXCLkwjnTpvzOTYRgomIMnu2qze1sTvuanb0MDVxJu9D40h6ABOSLK2emPvv4riOyZtQDB1s/n9D4xoPtmJ0KySW3Ut31wIE7qysV+aPd4EFuXdEQ1d75spg/3D6n3tPXV+el8tqYRJEUGJMgdufrEKROsY35W+pwA4HYsVSa3VVdm5pWhcti4vyuY3sWu4YpOHvZXhDro+VgQ7RMdz6hO6Ueu8DOh0U8zHtSsz4WLFDeymbIMNGbBl5VbZm1hbFAxqu35QitUcaemlSGqB5mFWMWYPtc2mFiilLn90Vwc5hr+9p2fgE+PNp+3w6Y3tD1oHazfPuP5fpFKEcwIKdlU7AunVpv71ziutSI1NJ2w3MAgEt14QneT6Rju91d+Xp1R1OAK3Yi0jXjpYh083gpogJ4tBSZZ4he2t0sP09xvbNTgJ2dnWoNojx7a7BwD5Ol3nd2PikPbklk/G8rf8B/nvnR5V9r+vgL);strokeColor=#ffffff;spacingTop=-3;spacingBottom=-3;spacingLeft=-3;spacingRight=-3;points=[];labelBackgroundColor=none;rounded=0;html=1;whiteSpace=wrap;" vertex="1" parent="1">
          <mxGeometry x="60" y="391" width="59" height="59" as="geometry" />
        </mxCell>
        <mxCell id="ltsCt4mNofAr8rePnj9i-51" value="Transformation Glue Job" style="text;html=1;align=center;verticalAlign=middle;whiteSpace=wrap;rounded=0;" vertex="1" parent="1">
          <mxGeometry x="59" y="460" width="60" height="30" as="geometry" />
        </mxCell>
        <mxCell id="ltsCt4mNofAr8rePnj9i-52" value="(Transformations and Business Logics)" style="text;html=1;align=center;verticalAlign=middle;whiteSpace=wrap;rounded=0;" vertex="1" parent="1">
          <mxGeometry x="29" y="490" width="120" height="30" as="geometry" />
        </mxCell>
        <mxCell id="ltsCt4mNofAr8rePnj9i-89" value="" style="edgeStyle=orthogonalEdgeStyle;rounded=0;orthogonalLoop=1;jettySize=auto;html=1;" edge="1" parent="1" source="ltsCt4mNofAr8rePnj9i-54" target="ltsCt4mNofAr8rePnj9i-86">
          <mxGeometry relative="1" as="geometry" />
        </mxCell>
        <mxCell id="ltsCt4mNofAr8rePnj9i-54" style="vsdxID=246;fillColor=#ffffff;gradientColor=none;shape=stencil(tZPfDoIgFMafhtuGh63VtdkL9ARMKFkmhljW04eeconTaCuuzp8ffNv5DoTFVcZLSYBW1uijvCphM8I2BEAVmTTKuoiwhLB4r408GF0XAvOSOxJoV5EC70QtDZSbdKfuEmuwWqwHZ4kQvnLSl1a9ed6nFJs3zDHbIpqrIhQ911y0aOSz0TtMG/D78FE3XHVe8yeKLuhsQINUnqOLff8fHgU7NARfMw6aVW/IxLS8x+Y3Y155tBsj7dF2fKU+7ZfnlQv8L+ZK+D1Z8gA=);strokeColor=#000000;spacingTop=-3;spacingBottom=-3;spacingLeft=-3;spacingRight=-3;points=[];labelBackgroundColor=none;rounded=1;html=1;whiteSpace=wrap;" vertex="1" parent="1">
          <mxGeometry x="495" y="160" width="290" height="250" as="geometry" />
        </mxCell>
        <mxCell id="ltsCt4mNofAr8rePnj9i-56" style="vsdxID=247;fillColor=#7AA116;gradientColor=none;shape=stencil(nVzbshy3DfwavU7xzuGz4/yHK5YjVRTJJcuJ8vcB6ywJTPcOudbb0QrcHpIg2Ghg9l386Y8Pv/z+/l1wf3z7+uVf7//78ddvH97Fv70L4ePnD++/fvwmf72LP7+LP/325ev7f3798ufnX9/+/fsv3bL/9e8v/+nf8P1t3HkeOfVRwf3v7ZOcjvPtk7+/Dfj08bMd0A5XrwP84Yod8I8/v75B+DeDFo9wPoY8PsrxyOHto+/hYZWOPKzCfJSWH1ZxWrXysHp8lPOR8wb/TICfj/MEfH/kBvh5fjTw7XrFmwW7rnAqR82XBUv+8H71wHbI+MgdrV0fWKzOfH1gsTrhgcWqndcHVqs7/Hq4QPgn4otVIvzmAb+qvyh+i/ce1p8Y1yssHayvBD6vjEm0XhXXS3aC12taxZv9um5wbYcPlwcWJ1mfiD7EXx9Yxvh6feBudX1eMQr1+rzGSF001h06gVc4jlWgAL25w8FxrOkI8Qrfz9F68uFI5YrfAu1WdUcsgB/mOR74BVxbjnpcghd/NHAVCSk4eTnSCVyl5fnU9miBa6vVDX4o8xxPfPPNDzCf6GjL4ud4xbdWr+69HePZqe7xrX8a/Ej4V8+/Hu181OvdEWS/0up5yxHhcWVIgcc1IS5Mo/HRdNWjQOAO4rzLOFgprMiQCOAy4wjg6j3z2jhCIPC8nLkcyUbgFWJwm48zwfOMyvPOVJeL0yis3cQdAdc909TFatziBj6hmzidieLnNb4/UiL80wN+0DA68Mvcjokf5sCJX8b07vAj3YDdFSFMiBXGyG4FjidWCTe/DA+5P6bREz6GKZ9n2DT4DddfJgvwdbjjHXyhEN3HgPOJVUX4Os/rhBcCgMtfj7QkQDIGCVA/vwAvVIzQK06+zeBm0K/0g9DbgZMHrigWDQ/9OXnOwA5u8BbFlii6PPVBuEZEcHK8EHRNFT+B44kVnrtzBME7+IjUoA+BYx8Mn1f0CsRPrNJJ8HUNnwZ3sPhjqb9rjCkY9SQrASLXzwtOv22OvbgG8rIeYgFevBc3X4wg6oRKPLJbnUv4kxyvHQlOXf+oEDzmKdHNJzLwZXndyZhyEn6F6UdPtL9bge+LFd62bYThO/igpEvhB1ub8BFPvTy2A9+LadwvE16s1uhprM5E70PgxhGrSQkUftB/A98ywy+DTiwjMlj8gItfB1+y+OB6kXPUbrS8cGXMeRJ8BN+LTXmMwgPdEKMni5+WF46khIM2GHikxZKIxZPhMYMLGp4UP6/xg7JDxc+YQQZlUoqf4cJLUTmrwV9nsBz4+hi4dpLhz4q/z0qm0R263Eq8+bj4bbqDnTzcOXmOe3nuMqRlnnu+wmevjCjwDsVpVXjy673PQf3Vs1cNfHOdBfZQ1YIi+97a92VMjYwP8FllFHPwwfXFCqnm9uTncpRA8BB3clUOrfABAk9uhL0OerkR27HhNEyrUAjcewRX/3wx5hdHNNdeJiO79EdGsmXupaFEhOmyL994MqYx3aiY3UalsObChbUXq/JXL/ySppsb/AyeX7LGM8NBwPUKZxk7uiNDZvpo2BZ4fmGZ03CygV6nOvEy2SvnzGgMvMPZc9izlHSIC+6vk10ZUyDuWBqtOtiJdM9Q8oE/NfjXub6Mwbhrk4iBH1TkUfyZkAz8qOzp1VSnJlVOFN+B94sV6oABlZ3E4Lscr+ZnGS4evVo4wa/EtcWqIdndZbi16jcrfoRLT6wSOp/Jw+O0qrj5uwy/quJrBIaG829Ki1RgqLD5pyO+uRU4ZExFgcdIJ2FaNcZH5zu9UudXBR4ZgzUhKx0N/PBM4Drh5jkjB5+dwCVjnghcCdZfrFjei5XgkfBt9b3TFNsU3kHoPbPyQtU2K7ifWFGmuxU3s26s5v4J3P8sSg8Un+avHvGysnsakqzSR0P3m5qT0ZUx9HZhHKMPqtpQQo1aw5zkcl3CrLrts4TpDryqIlFkSQZQFxGKDI/ba3triug179B8MXKCMInkoGmF5MAn9Ui1us+OUI2236zZGSrx8pRPskMHPGlfjw10U0mSh8KIfUpN2M4n6RnWY6fVfX7mYP72m3X9qR6bqWgkVlg0SrOmfs+THex/32xkCpFOq+QjAfZfnB9Pa5bpXYji9bi8UF+livs83I9PNuFIqBCmgImyf0GFu9j7cXB0eo0qPX7GuruGCn+NBl19X/rjaVZEFXvMmHunBpxHsSoYvU/SqsTqXEdvFotkTCu0Xif4o68kkvfSM+LXEVHv8VGtkTERL++TyJNYYXXq1EBm8MuSPPWKKeNX9hc8D2JFDlOpOufnR3f4VTn5wFcwe3vh/nP/wGnU7DitNv5XNSFXfPK/iu0LYlSAu58FbyMxWmfNMgRlaq9ObLhDwtlzkaAzDIjGvWK0TB06d4FoLGPwNuysCL2/HRgMlfIZ+LKDx8zBs2ggBK/h6rcDZ5/UQ7Rm5dZnP2lhwc8x2LoiVg6pk5vsxNwFFYm72yUOUf1V8VEpFSuHzNVRiUroPSVObhf7woHE1VHeJEao1gVPipXkIJS3+n3eEhHfc0+CkVQVH51Pl83AbyKfI6VYxlRMW5uW3hQeO9Nqo8jb65pLfElbG6btYWZ/pneJ0rYwQ9bEP7FzSozWipVk2gUlk3Bw0h4YvaBixH1mYbrjHXw50PWDXigDPpNU2wvBqJlkrg/GtVpauXUoaAOE1WvQ9SNVR4Urnrj3cXPya3zWC5Qh7na9iuALbn3groA4Yug9R6zoepFX35NW/awXyan6oimrW/ueHD2cfpqn0ciVGRWTRJd+YdKnifW9XJpQsUpUoitVqaHiY4lMrJ6k7Gu5spQZv21DFJAesaKLJ5FiU7hOIlY7rZwEo0SBX6yoNSJT12R5opbmQekXtQJUq/OQ3Cd8YO/LvPueSxV514fnWDDJWKQqjjjXk36w3KhtsMtly9nLGNKKM1UqJJFk+JEpTPhKdaJutdz8XHjzM/le1vCs8BULpJk5T94w3vwk8nL+nyNRPrFC9SeQ/NCN1lW6QMX5kIlwd12JXR8jn1glDPxr7aOx3xdSKhP3gmkgWFTG1eoOPnNTivnmAW8UvcAPqdJTQs9bg/tnhw5VSrFKeONmenEiOQ75u42XMU9OHfeEsNeh6hVNN/mrXh8rFabteQrTigJ+pupoLFyf2x36mKkjqI/Bjpw0ia3Bp3aspFrAqzGvdzrx6mOJIIZnxw5bcgJ1Y+0CfvTcDJapUTw+STT0VtIyPPVB7q67Xrtm13cQc0LjBuBEDbCB+6F2t32vHwJ6ovbjXmTDySdyPQkEVJjfcZ0ePJjrocDSPYjgsfO8z5Th1y9JmCKLgQ8Q9DpjZqrnIeD3FIEXf011e7qEy8/VmZ74MdVHfa2ntBj34ibPetaEa5IIFRTwhTGbjxhBhctDabn9XSjCsxdJ3/RPnN/kYyqnkcazSfS6lshZLi5/V0kx8AZafl858O/S3N5XznkuBt7e1o7LH1Dj8Jm5Zti9ImOSA4VH7/eJegGtEhGnFTZFbTUOGeMx0fT09p2Pmo6qxlJx/pE1FjkQ6+1/kml46ocTK4bH0qwPHPl3ClcvqrDEhI243uQweh7p1QfPtVk3POL+1ZcTg5874N579uYLN0P2t2jw7O30zUYXj9FNw7ApmGg4ejurscCz03Yb3TpGMx7S4jNZG7u/T2Jbe1lbl8pEQcAm4IjCjhaqjZy/PG6VWFavE2Btk1rwbMlhgmMP1raWUSix8/y+hRbtDDh2vhZtUny1jFNIyff8KiC3YNhS08jqKLHa1rAyvVvXi2OY0qpMprcOEqxMIbZfTeuEmpq/bGVwgmM3hS0yTnC83rbVy8zF20ptb9zu2yusGcHxzapeul2ndMoG9bYtcMYTF24LOVw68Ihj2Rpe69ZLfd6zG91Bz5O5G5CFBerPTPysnPljS4D8ob+R8NvHT5/efmJh/v/dDyi0pvfw47Hz7vcQGrWz5EDNT62on4yJNa6fNn5dfdY0n+5D/zWE6z7UwdBft1+8vv8D9vON7OlI69y0D8H6e6E3yLsVUASx8nCGrJU6stv9oARWgAu3TTflHo+P3NYr3Qq2HyE4EO6K6ei1wEJShHsWNNbzNUM8L6RiY6wu1P3jqPnKY/PX1TtM0eMlb3pqv/BuoWizd/Rxos5Ns5AMwdZNOavIzyP3TXu3d4Bhs1CCYScc+EAJ1LPbAw5WQBqRlVZH1fa+AobVz1a5AGjaUTWUYUSumX7HpeUN/umpDc38tIvtmcUfrvCzdGVaDyb/iDcbD31aVa/Ox2a0h9J1Fya4WC5DCsb5QOXi3OgFAxslI1rd4esrGZ6/OMwdxKqBWGHNpplergG/o5eNJbxcqWDYGuXRuVDJyt6yWki5XrN0g2/vbnfZzsvBwyjxw6ZwoCFa/aipu5040Bb5A38KSj56+xmp+PP/AQ==);strokeColor=none;spacingTop=-3;spacingBottom=-3;spacingLeft=-3;spacingRight=-3;points=[];labelBackgroundColor=none;rounded=0;html=1;whiteSpace=wrap;" vertex="1" parent="1">
          <mxGeometry x="595" y="310" width="66" height="60.78" as="geometry" />
        </mxCell>
        <mxCell id="ltsCt4mNofAr8rePnj9i-68" style="edgeStyle=orthogonalEdgeStyle;rounded=0;orthogonalLoop=1;jettySize=auto;html=1;entryX=0.5;entryY=1;entryDx=0;entryDy=0;entryPerimeter=0;" edge="1" parent="1" source="ltsCt4mNofAr8rePnj9i-56" target="ltsCt4mNofAr8rePnj9i-60">
          <mxGeometry relative="1" as="geometry" />
        </mxCell>
        <mxCell id="ltsCt4mNofAr8rePnj9i-60" value="" style="outlineConnect=0;dashed=0;verticalLabelPosition=bottom;verticalAlign=top;align=center;html=1;shape=mxgraph.aws3.redshift;fillColor=#2E73B8;gradientColor=none;" vertex="1" parent="1">
          <mxGeometry x="675" y="210.75" width="60" height="50.99" as="geometry" />
        </mxCell>
        <mxCell id="ltsCt4mNofAr8rePnj9i-64" value="Athena Database" style="text;html=1;align=center;verticalAlign=middle;whiteSpace=wrap;rounded=0;" vertex="1" parent="1">
          <mxGeometry x="523" y="167" width="60" height="30" as="geometry" />
        </mxCell>
        <mxCell id="ltsCt4mNofAr8rePnj9i-65" value="Redshift Spectrum (External Tables)" style="text;html=1;align=center;verticalAlign=middle;whiteSpace=wrap;rounded=0;" vertex="1" parent="1">
          <mxGeometry x="650" y="170" width="110" height="30" as="geometry" />
        </mxCell>
        <mxCell id="ltsCt4mNofAr8rePnj9i-57" value="&lt;div style=&quot;&quot;&gt;&lt;div style=&quot;&quot;&gt;&lt;span style=&quot;font-size: 11.64px;&quot;&gt;S3 Bucket for Flattened Data&lt;/span&gt;&lt;/div&gt;&lt;/div&gt;" style="verticalAlign=middle;align=center;overflow=width;vsdxID=248;fillColor=none;gradientColor=none;shape=stencil(nZBRDoQgDERP03+WHsHFe5iISyOCQdT19kIaIxq//Jtp3zTpAFaTaUYNUkwx+F6v1EYD+AUpyRkdKCYFqACrzgf9C352LfuxyWRWg1/yhT/nRE5IsZWuZtCSK8CPeI0e/hF+jV7AJM4PO7KWCyr390bSiNtEtQM=);strokeColor=none;spacingTop=-3;spacingBottom=-3;spacingLeft=-3;spacingRight=-3;points=[];labelBackgroundColor=none;rounded=0;html=1;whiteSpace=wrap;" vertex="1" parent="1">
          <mxGeometry x="548" y="372.49518518518516" width="160" height="32.77777777777777" as="geometry" />
        </mxCell>
        <mxCell id="ltsCt4mNofAr8rePnj9i-67" style="edgeStyle=orthogonalEdgeStyle;rounded=0;orthogonalLoop=1;jettySize=auto;html=1;entryX=0.49;entryY=1.019;entryDx=0;entryDy=0;entryPerimeter=0;" edge="1" parent="1" source="ltsCt4mNofAr8rePnj9i-56">
          <mxGeometry relative="1" as="geometry">
            <mxPoint x="552" y="266.02781481481475" as="targetPoint" />
          </mxGeometry>
        </mxCell>
        <mxCell id="ltsCt4mNofAr8rePnj9i-58" style="vsdxID=249;fillColor=#F58534;gradientColor=none;shape=stencil(zVhbbsIwEDxNfle2189v2t4DCShRKSBKX7evoygU22QTF6fKn0NmzD5nHVe4eNsuj+tKsLfz6fCy/qxX522FD5UQ9X67PtVnv6rwscLF5nBaP58O7/tV+3xcNshm9Xr4aHb4anmKNRTBvttHztrnpxa7q/dX2BBqJGg7FqwZSNUPlg6cDghKAuf9hM7O6/1xPLyxXffD6aCEAZyVn5HhRoEyf04R5adCQDF2Z7TgiKAkMcnFCwGacJNbkCYkcGCynyA0CBUTHJGlGwQH3PUTUHUGXAgWBEGQApiNCZYwKSVIsMQfRJUjAKn+MOBEzuYJ3ueEyJiWcYq5AU14a7B7fSE4QEKdUgLtgeWgMIqQIzywGtDk7J/gORjCfoegwoojdDsWEeyqdRR6oNVTS7ykKSJXjsW17wkij6BAEOWZJssXICN8MBq0CwkaJJGuGwQLjAhqWtFDSp60jHIgCB9SgqZLKOp4jUBIYionA7unhMZ+ImmpJA7M0qaMs3Jwg6C7yTBycDR1REQpne6+ULPwdCfoLiAjW22gkf3i91i4qXe7y5u+02KB3vWjkiibWenmFNIWxrOA8PhBRx1N5jcZJxDn6JPmfuksfDyZQv1Dnwvoc8nzYeHREvpaQPi98koiONnH8ymGV6S8946W0h9JEwzH//rgTMZoLr7w2G0vcwaH7zyuavKuGGib8w8g4XajAzAXYOBwlHa/iC/t/E/thR8+/gA=);strokeColor=#000000;spacingTop=-3;spacingBottom=-3;spacingLeft=-3;spacingRight=-3;points=[];labelBackgroundColor=none;rounded=0;html=1;whiteSpace=wrap;" vertex="1" parent="1">
          <mxGeometry x="525" y="210" width="56" height="55.26" as="geometry" />
        </mxCell>
        <mxCell id="ltsCt4mNofAr8rePnj9i-73" value="" style="edgeStyle=orthogonalEdgeStyle;rounded=0;orthogonalLoop=1;jettySize=auto;html=1;" edge="1" parent="1" source="ltsCt4mNofAr8rePnj9i-70" target="ltsCt4mNofAr8rePnj9i-71">
          <mxGeometry relative="1" as="geometry" />
        </mxCell>
        <mxCell id="ltsCt4mNofAr8rePnj9i-70" value="Bronze&amp;nbsp;" style="rounded=0;whiteSpace=wrap;html=1;" vertex="1" parent="1">
          <mxGeometry x="530" y="556.08" width="120" height="150" as="geometry" />
        </mxCell>
        <mxCell id="ltsCt4mNofAr8rePnj9i-74" value="" style="edgeStyle=orthogonalEdgeStyle;rounded=0;orthogonalLoop=1;jettySize=auto;html=1;" edge="1" parent="1" source="ltsCt4mNofAr8rePnj9i-71" target="ltsCt4mNofAr8rePnj9i-72">
          <mxGeometry relative="1" as="geometry" />
        </mxCell>
        <mxCell id="ltsCt4mNofAr8rePnj9i-71" value="Silver" style="rounded=0;whiteSpace=wrap;html=1;" vertex="1" parent="1">
          <mxGeometry x="697.5" y="556.08" width="120" height="150" as="geometry" />
        </mxCell>
        <mxCell id="ltsCt4mNofAr8rePnj9i-72" value="CDL" style="rounded=0;whiteSpace=wrap;html=1;" vertex="1" parent="1">
          <mxGeometry x="856" y="556.08" width="120" height="150" as="geometry" />
        </mxCell>
        <mxCell id="ltsCt4mNofAr8rePnj9i-76" value="" style="shape=image;verticalLabelPosition=bottom;labelBackgroundColor=default;verticalAlign=top;aspect=fixed;imageAspect=0;image=https://w1.pngwing.com/pngs/751/223/png-transparent-digital-marketing-icon-web-design-web-development-frontend-web-development-search-engine-optimization-user-interface-design-web-application-wordpress.png;" vertex="1" parent="1">
          <mxGeometry x="1107.5" y="580" width="70" height="70" as="geometry" />
        </mxCell>
        <mxCell id="ltsCt4mNofAr8rePnj9i-78" value="&lt;font style=&quot;font-size: 11px;&quot;&gt;Front End Application&lt;/font&gt;" style="text;html=1;align=center;verticalAlign=middle;whiteSpace=wrap;rounded=0;" vertex="1" parent="1">
          <mxGeometry x="1090" y="650" width="97.5" height="30" as="geometry" />
        </mxCell>
        <mxCell id="ltsCt4mNofAr8rePnj9i-85" value="" style="shape=image;verticalLabelPosition=bottom;labelBackgroundColor=default;verticalAlign=top;aspect=fixed;imageAspect=0;image=https://www.everythingtech.co.uk/wp-content/uploads/2023/01/power-BI.jpeg;" vertex="1" parent="1">
          <mxGeometry x="877" y="252.39999999999998" width="116" height="65.2" as="geometry" />
        </mxCell>
        <mxCell id="ltsCt4mNofAr8rePnj9i-90" value="Data Visualization (Dashboards)" style="text;html=1;align=center;verticalAlign=middle;whiteSpace=wrap;rounded=0;" vertex="1" parent="1">
          <mxGeometry x="886" y="170" width="104" height="30" as="geometry" />
        </mxCell>
        <mxCell id="ltsCt4mNofAr8rePnj9i-91" value="&lt;b&gt;&lt;u&gt;&lt;font style=&quot;font-size: 16px;&quot;&gt;Data Lake&lt;/font&gt;&lt;/u&gt;&lt;/b&gt;" style="text;html=1;align=center;verticalAlign=middle;whiteSpace=wrap;rounded=0;" vertex="1" parent="1">
          <mxGeometry x="490" y="511.08" width="110" height="30" as="geometry" />
        </mxCell>
        <mxCell id="ltsCt4mNofAr8rePnj9i-92" style="edgeStyle=orthogonalEdgeStyle;rounded=0;orthogonalLoop=1;jettySize=auto;html=1;entryX=0.004;entryY=0.471;entryDx=0;entryDy=0;entryPerimeter=0;" edge="1" parent="1" source="ltsCt4mNofAr8rePnj9i-27" target="ltsCt4mNofAr8rePnj9i-75">
          <mxGeometry relative="1" as="geometry" />
        </mxCell>
        <mxCell id="ltsCt4mNofAr8rePnj9i-93" style="edgeStyle=orthogonalEdgeStyle;rounded=0;orthogonalLoop=1;jettySize=auto;html=1;entryX=-0.017;entryY=0.44;entryDx=0;entryDy=0;entryPerimeter=0;" edge="1" parent="1" source="ltsCt4mNofAr8rePnj9i-27" target="ltsCt4mNofAr8rePnj9i-54">
          <mxGeometry relative="1" as="geometry" />
        </mxCell>
        <mxCell id="ltsCt4mNofAr8rePnj9i-94" style="vsdxID=255;fillColor=#8C4FFF;gradientColor=none;shape=stencil(pVnbcts4DP0av3JIgjc9d9v/6LTpJrPZpJOmu8nfFx6LJHQgUnb7Zss4Iq4HIHyiDz/uP3+/O3n74/Xl+Z+7/x++vt6f6K+T9w9P93cvD6/86UQfT/Th2/PL3d8vzz+fvl6+f/98ljx/+vf5v/Mb3i44e0Z4+y6/fboIPj48CUFnf1u0ft8V/m3RjSB/6BZ+e3h8bL+MDKfFJNq80AdT3Pj04E1c/hDgTIljwI5KNwNQJTA6mZS3gGRocoCWt4ayBHz5+XI5wWnI+sgtJl6ssG9+lcqGqubrI1dMWd31RqtUMW4FvhNK7fs8GLtVWAFQYYbUc5vCQpVVuxBNTKCwMIu0FA0cBgoLxH5ElL4CsT7y2TgH+gqrfJPKBfQV7iKU2s8IEZIBQGWEiLXTqnidN16bRVqK9v21zfjoTCjbhIhmmaR8DCaEPwR4s6QJQKt0MwBV2hodiol+C8gmzKhKA9qZozQUkFo21qQEabgYV1WvZWO3IY2V1mnz+74nmt29YcyUjMnkiEpuNYzNM0LDbgdpKRp4CFQViEEMlLYC0pnIEygsbBpTp/TUddQZoRMf8qYI7YQ3RZp4bRNpKRp4C+paVR1Zk8Mt8bgZcECNWqWbAUolMLrxxJUjSOwBGQFUEi4mQxJ2TAtral2ts3VsLFXDKqUGbL3VVwJWj3jj/UxfCakNh4wNUDTCKt+kMtSM8BaB0L57VTxQXnnXGxeUthmUFXzvtUmkpWjgrKM+cjRrSITTYfbaKK9ThrSzaJCMkO5bRgpHo2fgQQMmuY6Ro+cCoydLeSB8cm1Cee/TaJ4M4yE1k1eFE18AwlTh1F3iGgYnIzbLgnsTpwOOnkKKmhRNik0iVkCqVTLhfGj6iZ0O5MBZoxRmKX+YD+fzZ5OWKjdl4U69KQ8L31WFSSvs1bDMUg7oQUUY6KzUemz8gDmk6Mz3idzp7OwVl4DOZKYPJitVQNty8+qyx9O2n+YDQwLSWTQFKq6xTKczvsNsdRUy1GTsdAARkHq2NQWLh50HZ1sDzMTTR0Det8beNC8z9S7ze3ExpJnf4i3I9wKrj4LxQP1+MYtX3nLTUJ17A4zCHF51/mKwTfYxaJRXdDTYco8u2KPFaztHqB6dag60wzNHJmnb5zNCt8o1p2ZSx++43kFfYPbAlQSHMU2GBEZEPXhOWSv7npBVYWcKKJzb4CCmBNxICKFr60pAek1HdTauQ2Th98MJqxop5eiCx+7Ls7uxBhztIySkJggXJw41euHDUgtcXCLkwjnTpvzOTYRgomIMnu2qze1sTvuanb0MDVxJu9D40h6ABOSLK2emPvv4riOyZtQDB1s/n9D4xoPtmJ0KySW3Ut31wIE7qysV+aPd4EFuXdEQ1d75spg/3D6n3tPXV+el8tqYRJEUGJMgdufrEKROsY35W+pwA4HYsVSa3VVdm5pWhcti4vyuY3sWu4YpOHvZXhDro+VgQ7RMdz6hO6Ueu8DOh0U8zHtSsz4WLFDeymbIMNGbBl5VbZm1hbFAxqu35QitUcaemlSGqB5mFWMWYPtc2mFiilLn90Vwc5hr+9p2fgE+PNp+3w6Y3tD1oHazfPuP5fpFKEcwIKdlU7AunVpv71ziutSI1NJ2w3MAgEt14QneT6Rju91d+Xp1R1OAK3Yi0jXjpYh083gpogJ4tBSZZ4he2t0sP09xvbNTgJ2dnWoNojx7a7BwD5Ol3nd2PikPbklk/G8rf8B/nvnR5V9r+vgL);strokeColor=#ffffff;spacingTop=-3;spacingBottom=-3;spacingLeft=-3;spacingRight=-3;points=[];labelBackgroundColor=none;rounded=0;html=1;whiteSpace=wrap;" vertex="1" parent="1">
          <mxGeometry x="420" y="202.74" width="59" height="59" as="geometry" />
        </mxCell>
        <mxCell id="ltsCt4mNofAr8rePnj9i-95" style="vsdxID=255;fillColor=#8C4FFF;gradientColor=none;shape=stencil(pVnbcts4DP0av3JIgjc9d9v/6LTpJrPZpJOmu8nfFx6LJHQgUnb7Zss4Iq4HIHyiDz/uP3+/O3n74/Xl+Z+7/x++vt6f6K+T9w9P93cvD6/86UQfT/Th2/PL3d8vzz+fvl6+f/98ljx/+vf5v/Mb3i44e0Z4+y6/fboIPj48CUFnf1u0ft8V/m3RjSB/6BZ+e3h8bL+MDKfFJNq80AdT3Pj04E1c/hDgTIljwI5KNwNQJTA6mZS3gGRocoCWt4ayBHz5+XI5wWnI+sgtJl6ssG9+lcqGqubrI1dMWd31RqtUMW4FvhNK7fs8GLtVWAFQYYbUc5vCQpVVuxBNTKCwMIu0FA0cBgoLxH5ElL4CsT7y2TgH+gqrfJPKBfQV7iKU2s8IEZIBQGWEiLXTqnidN16bRVqK9v21zfjoTCjbhIhmmaR8DCaEPwR4s6QJQKt0MwBV2hodiol+C8gmzKhKA9qZozQUkFo21qQEabgYV1WvZWO3IY2V1mnz+74nmt29YcyUjMnkiEpuNYzNM0LDbgdpKRp4CFQViEEMlLYC0pnIEygsbBpTp/TUddQZoRMf8qYI7YQ3RZp4bRNpKRp4C+paVR1Zk8Mt8bgZcECNWqWbAUolMLrxxJUjSOwBGQFUEi4mQxJ2TAtral2ts3VsLFXDKqUGbL3VVwJWj3jj/UxfCakNh4wNUDTCKt+kMtSM8BaB0L57VTxQXnnXGxeUthmUFXzvtUmkpWjgrKM+cjRrSITTYfbaKK9ThrSzaJCMkO5bRgpHo2fgQQMmuY6Ro+cCoydLeSB8cm1Cee/TaJ4M4yE1k1eFE18AwlTh1F3iGgYnIzbLgnsTpwOOnkKKmhRNik0iVkCqVTLhfGj6iZ0O5MBZoxRmKX+YD+fzZ5OWKjdl4U69KQ8L31WFSSvs1bDMUg7oQUUY6KzUemz8gDmk6Mz3idzp7OwVl4DOZKYPJitVQNty8+qyx9O2n+YDQwLSWTQFKq6xTKczvsNsdRUy1GTsdAARkHq2NQWLh50HZ1sDzMTTR0Det8beNC8z9S7ze3ExpJnf4i3I9wKrj4LxQP1+MYtX3nLTUJ17A4zCHF51/mKwTfYxaJRXdDTYco8u2KPFaztHqB6dag60wzNHJmnb5zNCt8o1p2ZSx++43kFfYPbAlQSHMU2GBEZEPXhOWSv7npBVYWcKKJzb4CCmBNxICKFr60pAek1HdTauQ2Th98MJqxop5eiCx+7Ls7uxBhztIySkJggXJw41euHDUgtcXCLkwjnTpvzOTYRgomIMnu2qze1sTvuanb0MDVxJu9D40h6ABOSLK2emPvv4riOyZtQDB1s/n9D4xoPtmJ0KySW3Ut31wIE7qysV+aPd4EFuXdEQ1d75spg/3D6n3tPXV+el8tqYRJEUGJMgdufrEKROsY35W+pwA4HYsVSa3VVdm5pWhcti4vyuY3sWu4YpOHvZXhDro+VgQ7RMdz6hO6Ueu8DOh0U8zHtSsz4WLFDeymbIMNGbBl5VbZm1hbFAxqu35QitUcaemlSGqB5mFWMWYPtc2mFiilLn90Vwc5hr+9p2fgE+PNp+3w6Y3tD1oHazfPuP5fpFKEcwIKdlU7AunVpv71ziutSI1NJ2w3MAgEt14QneT6Rju91d+Xp1R1OAK3Yi0jXjpYh083gpogJ4tBSZZ4he2t0sP09xvbNTgJ2dnWoNojx7a7BwD5Ol3nd2PikPbklk/G8rf8B/nvnR5V9r+vgL);strokeColor=#ffffff;spacingTop=-3;spacingBottom=-3;spacingLeft=-3;spacingRight=-3;points=[];labelBackgroundColor=none;rounded=0;html=1;whiteSpace=wrap;" vertex="1" parent="1">
          <mxGeometry x="420" y="635.5" width="59" height="59" as="geometry" />
        </mxCell>
        <mxCell id="ltsCt4mNofAr8rePnj9i-96" value="Enrichment Ingestion Glue Job" style="text;html=1;align=center;verticalAlign=middle;whiteSpace=wrap;rounded=0;" vertex="1" parent="1">
          <mxGeometry x="402" y="160" width="77" height="30" as="geometry" />
        </mxCell>
        <mxCell id="ltsCt4mNofAr8rePnj9i-97" value="Data lake Ingestion Glue Job" style="text;html=1;align=center;verticalAlign=middle;whiteSpace=wrap;rounded=0;" vertex="1" parent="1">
          <mxGeometry x="413" y="700" width="60" height="30" as="geometry" />
        </mxCell>
      </root>
    </mxGraphModel>
  </diagram>
</mxfile>
